<svg width="30" height="30" viewBox="0 0 30 30" fill="none" xmlns="http://www.w3.org/2000/svg">
<path d="M24.7969 24.1829H5.20312C4.58152 24.1829 3.98538 23.9359 3.54584 23.4964C3.10631 23.0569 2.85938 22.4607 2.85938 21.8391V8.15161C2.85938 7.53001 3.10631 6.93387 3.54584 6.49433C3.98538 6.05479 4.58152 5.80786 5.20312 5.80786H24.7969C25.4185 5.80786 26.0146 6.05479 26.4542 6.49433C26.8937 6.93387 27.1406 7.53001 27.1406 8.15161V21.8391C27.1406 22.4607 26.8937 23.0569 26.4542 23.4964C26.0146 23.9359 25.4185 24.1829 24.7969 24.1829ZM5.20312 6.74536C4.83016 6.74536 4.47248 6.89352 4.20876 7.15724C3.94503 7.42097 3.79688 7.77865 3.79688 8.15161V21.8391C3.79688 22.2121 3.94503 22.5698 4.20876 22.8335C4.47248 23.0972 4.83016 23.2454 5.20312 23.2454H24.7969C25.1698 23.2454 25.5275 23.0972 25.7912 22.8335C26.055 22.5698 26.2031 22.2121 26.2031 21.8391V8.15161C26.2031 7.77865 26.055 7.42097 25.7912 7.15724C25.5275 6.89352 25.1698 6.74536 24.7969 6.74536H5.20312Z" fill="#F5F3EA"/>
<path d="M15.4686 15.2019C15.2716 15.2016 15.0797 15.1392 14.9201 15.0237L3.8717 6.98467C3.81902 6.94981 3.77393 6.90466 3.73913 6.85194C3.70434 6.79921 3.68056 6.73999 3.66923 6.67785C3.65789 6.6157 3.65924 6.5519 3.67318 6.49029C3.68712 6.42867 3.71338 6.37051 3.75037 6.3193C3.78735 6.26809 3.83431 6.22488 3.88841 6.19227C3.94252 6.15967 4.00266 6.13833 4.06522 6.12955C4.12778 6.12077 4.19147 6.12472 4.25246 6.14118C4.31345 6.15763 4.37049 6.18624 4.42014 6.22529L15.4686 14.2644L25.7811 6.39404C25.83 6.3565 25.8859 6.32895 25.9455 6.31299C26.005 6.29702 26.0672 6.29295 26.1283 6.301C26.1895 6.30906 26.2485 6.32908 26.3019 6.35992C26.3553 6.39076 26.4021 6.43183 26.4397 6.48076C26.4772 6.5297 26.5048 6.58556 26.5207 6.64514C26.5367 6.70472 26.5408 6.76686 26.5327 6.82802C26.5247 6.88918 26.5046 6.94815 26.4738 7.00157C26.443 7.05499 26.4019 7.10181 26.353 7.13936L16.0498 15.0003C15.8843 15.1309 15.6795 15.202 15.4686 15.2019Z" fill="#F5F3EA"/>
</svg>
