<svg width="38" height="38" viewBox="0 0 38 38" fill="none" xmlns="http://www.w3.org/2000/svg">
<rect width="38" height="38" rx="8" fill="#F5F3EA"/>
<path d="M22.08 19.794L22.1138 19.6999C22.104 19.6963 22.0937 19.6926 22.0832 19.6887C21.9605 19.6437 21.7918 19.5818 21.5601 19.608C21.299 19.6376 21.0532 19.8215 20.9118 20.031C20.8045 20.1901 20.3925 20.6798 20.2035 20.8985C20.1363 20.8661 20.0636 20.8348 19.9853 20.8011C19.9578 20.7892 19.9296 20.7771 19.9007 20.7645C19.7796 20.7117 19.6409 20.6488 19.4755 20.5615C19.1444 20.3869 18.7298 20.1288 18.2755 19.7283L18.2755 19.7283C17.6533 19.1805 17.2013 18.5008 17.0173 18.201C17.1152 18.1003 17.2075 17.9884 17.2883 17.8904C17.327 17.8435 17.3631 17.7998 17.3958 17.7621C17.5488 17.5858 17.6279 17.4257 17.6969 17.2862C17.7066 17.2666 17.716 17.2474 17.7255 17.2286C17.8292 17.0228 17.8377 16.8075 17.8072 16.6253C17.8085 16.6196 17.8088 16.6155 17.809 16.6139L17.809 16.6136C17.8099 16.6046 17.8094 16.5974 17.8091 16.5945C17.8082 16.5846 17.8059 16.5762 17.8056 16.5751L17.8055 16.575L17.8032 16.567C17.7988 16.5531 17.789 16.526 17.7781 16.4964C17.7569 16.4221 17.7306 16.3569 17.7043 16.3048C17.7043 16.3048 17.7043 16.3047 17.7043 16.3047L17.6949 16.3094C17.6612 16.2267 17.6223 16.1311 17.5832 16.0348C17.5028 15.8369 17.4213 15.6363 17.3812 15.5402C17.3319 15.4219 17.2809 15.2993 17.2306 15.1786C17.1151 14.9009 17.0038 14.6336 16.9284 14.4546L16.9284 14.4546C16.7961 14.1405 16.6104 13.8966 16.3538 13.7769C16.2277 13.7181 16.1092 13.6971 16.0211 13.6908C15.9771 13.6876 15.9403 13.688 15.9138 13.6893C15.9005 13.6899 15.8898 13.6907 15.8823 13.6914L15.8778 13.6918C15.7164 13.6845 15.5396 13.6826 15.3663 13.6826C15.0645 13.6826 14.6382 13.7947 14.2893 14.1706C14.28 14.1807 14.2692 14.1921 14.2571 14.2049C14.0142 14.4622 13.2478 15.274 13.2478 16.6495C13.2478 18.0581 14.1766 19.2493 14.3883 19.5193C14.3859 19.5286 14.3846 19.5366 14.3846 19.5414C14.3853 19.5486 14.3876 19.5599 14.3888 19.564C14.391 19.571 14.3935 19.5762 14.3941 19.5775C14.3953 19.5799 14.3964 19.5819 14.3971 19.5832C14.3975 19.584 14.3978 19.5845 14.3979 19.5847L14.4004 19.5888L14.406 19.5972L14.4258 19.6258C14.4436 19.6513 14.4707 19.6896 14.505 19.7373C14.5737 19.8329 14.672 19.9669 14.7843 20.1131C15.0092 20.4055 15.3235 20.7896 15.7184 21.2054C16.5074 22.0361 17.6208 23.0008 19.0066 23.5918L19.0067 23.5918C19.6411 23.862 20.1418 24.0252 20.5198 24.1438C21.2375 24.3692 21.8899 24.3344 22.3756 24.2628C22.752 24.2074 23.1586 24.0283 23.5542 23.7779C23.9472 23.5292 24.3531 23.208 24.5331 22.7101L24.5331 22.7101C24.6565 22.3685 24.7196 22.0519 24.7425 21.7898C24.7539 21.6587 24.7555 21.5411 24.7468 21.4309L24.7468 21.4309C24.746 21.4209 24.7453 21.4098 24.7446 21.398C24.7424 21.3603 24.7397 21.3148 24.7301 21.2685C24.7165 21.2029 24.6897 21.1328 24.6365 21.0455C24.4635 20.7614 24.2556 20.6812 24.0733 20.6109C24.0212 20.5908 23.9711 20.5715 23.9246 20.5485C23.7913 20.4824 23.4124 20.2975 23.0325 20.1164C22.9885 20.0954 22.945 20.0747 22.9023 20.0543C22.5802 19.9004 22.2976 19.7654 22.1136 19.6998L22.08 19.794ZM22.08 19.794C22.2587 19.8577 22.536 19.9901 22.8598 20.1448C22.9023 20.1651 22.9455 20.1857 22.9895 20.2067C23.369 20.3875 23.7474 20.5723 23.8803 20.6381C23.9378 20.6666 23.9948 20.6887 24.0509 20.7105C24.2282 20.7794 24.3974 20.8451 24.5511 21.0975L20.2936 20.9471C20.4887 20.7207 20.8864 20.2475 20.9947 20.087C21.1241 19.8952 21.3463 19.7328 21.5713 19.7074C21.7788 19.6839 21.9276 19.7383 22.0496 19.7829C22.0599 19.7867 22.0701 19.7904 22.08 19.794ZM16.5 14.5C16.5286 14.5014 16.5244 14.5091 16.4991 14.5203L16.5 14.5ZM16.5 14.5C16.4829 14.4992 16.4553 14.5009 16.4198 14.5045C16.4198 14.5075 16.4199 14.5106 16.4201 14.5138C16.4211 14.5259 16.424 14.5364 16.428 14.5455C16.4581 14.5361 16.4828 14.5275 16.499 14.5203L16.5 14.5ZM15.867 14.6871C15.7759 14.7015 15.6868 14.7154 15.6089 14.7265C15.5076 14.741 15.4168 14.7522 15.3663 14.7522C15.3234 14.7522 15.1948 14.7679 15.0736 14.8985C15.049 14.9251 15.023 14.9522 14.9962 14.9802C14.8682 15.114 14.7199 15.2688 14.5925 15.4907C14.4402 15.7559 14.3174 16.1193 14.3174 16.6495C14.3174 17.1427 14.5152 17.671 14.7358 18.1044C14.9509 18.5271 15.1821 18.8489 15.2526 18.9427L15.2582 18.9483L15.2574 18.9488C15.2858 18.9861 15.3165 19.0294 15.353 19.0808C15.3668 19.1004 15.3815 19.121 15.3972 19.143C15.455 19.224 15.5291 19.326 15.6324 19.4605C15.8397 19.73 16.1309 20.0863 16.4944 20.469C17.2222 21.2353 18.237 22.1006 19.4264 22.6079C20.0172 22.8595 20.4732 23.0081 20.8404 23.1233L20.8404 23.1233C21.3522 23.284 21.8195 23.2636 22.2191 23.2047C22.2746 23.1966 22.3909 23.1618 22.535 23.1027C22.677 23.0444 22.8383 22.9658 22.9827 22.8744C23.1262 22.7836 23.255 22.6757 23.353 22.5758C23.4543 22.4725 23.5121 22.3884 23.5272 22.3466C23.6177 22.096 23.6625 21.8628 23.677 21.6968C23.6794 21.6703 23.6803 21.6483 23.6805 21.6285C23.6702 21.623 23.6591 21.6168 23.6474 21.6104L23.6426 21.6077C23.597 21.5825 23.5344 21.548 23.4504 21.5064C23.3272 21.4455 22.9472 21.26 22.5728 21.0816C22.3861 20.9926 22.1879 20.9012 22.0321 20.8305C21.9543 20.7952 21.8871 20.7651 21.8375 20.7432C21.8127 20.7322 21.7924 20.7233 21.7774 20.7169L21.7595 20.7092C21.7568 20.7081 21.7552 20.7075 21.7542 20.7071C21.7534 20.7068 21.7532 20.7067 21.7535 20.7068L21.745 20.7038C21.5077 21.0353 21.0885 21.5137 20.9441 21.6774L20.9399 21.6821L20.9398 21.6821C20.8124 21.8247 20.6099 21.9685 20.3681 21.9976C20.1274 22.0265 19.9238 21.9526 19.7496 21.8665C19.7331 21.8583 19.7026 21.8454 19.6582 21.8266C19.6144 21.8081 19.5572 21.7839 19.4867 21.753C19.3496 21.6928 19.1721 21.6111 18.9763 21.5078C18.5842 21.301 18.0941 20.9939 17.5684 20.5305C16.7325 19.7946 16.196 18.9209 16.0334 18.6448C15.8999 18.4182 15.8576 18.1119 15.9453 17.8787C16.0216 17.6759 16.1415 17.5609 16.2112 17.4942L15.867 14.6871ZM15.867 14.6871C15.8653 14.6978 15.8646 14.7094 15.8651 14.722M15.867 14.6871L16.7485 16.7833C16.7138 16.7138 16.6831 16.6412 16.6365 16.5308C16.6292 16.5135 16.6215 16.4954 16.6134 16.4761C16.562 16.3546 16.4996 16.2049 16.4325 16.0439C16.4199 16.0135 16.4071 15.9827 16.3941 15.9517C16.3512 15.8487 16.307 15.7425 16.2632 15.6373C16.1402 15.3419 16.0205 15.0544 15.9425 14.8693M15.9425 14.8693L16.0346 14.8305L15.9425 14.8693C15.9425 14.8693 15.9425 14.8693 15.9425 14.8693ZM15.9425 14.8693C15.9041 14.7781 15.8781 14.739 15.8686 14.7263C15.8671 14.7244 15.8661 14.7231 15.8655 14.7225M15.8655 14.7225L15.8661 14.723M15.8655 14.7225C15.8651 14.7219 15.865 14.7218 15.8651 14.722M15.8655 14.7225L15.8652 14.7221C15.8652 14.7221 15.8651 14.7221 15.8651 14.722M15.8661 14.723C15.8667 14.7236 15.8676 14.7245 15.8689 14.7256L15.8699 14.7264L15.8701 14.7266L15.8661 14.723ZM15.8661 14.723C15.8656 14.7225 15.8653 14.7222 15.8651 14.722M8.91984 28.4211L8.91983 28.4211C8.89465 28.5111 8.89351 28.6062 8.91653 28.6968C8.93955 28.7874 8.98592 28.8704 9.05102 28.9375C9.11611 29.0046 9.19766 29.0535 9.28754 29.0793C9.37741 29.105 9.47247 29.1068 9.56323 29.0843L9.56329 29.0843L14.296 27.9115C15.7025 28.6559 17.297 29.1 19 29.1C24.5728 29.1 29.1 24.5728 29.1 19C29.1 13.4272 24.5728 8.9 19 8.9C13.4272 8.9 8.9 13.4272 8.9 19C8.9 20.7773 9.38346 22.4364 10.1901 23.8862L8.91984 28.4211ZM14.5974 26.884L14.5974 26.884C14.4788 26.8178 14.3395 26.7991 14.2078 26.8318L10.1973 27.8256L11.271 23.995C11.271 23.995 11.271 23.9949 11.271 23.9949C11.2907 23.9255 11.2961 23.8528 11.287 23.7812C11.2778 23.7096 11.2542 23.6406 11.2177 23.5783L11.2176 23.5781C10.4256 22.2352 9.96957 20.6729 9.96957 19C9.96957 14.0076 14.0076 9.96957 19 9.96957C23.9924 9.96957 28.0304 14.0076 28.0304 19C28.0304 23.9924 23.9924 28.0304 19 28.0304C17.3994 28.0304 15.9005 27.6132 14.5974 26.884ZM16.7485 16.7833L16.7494 16.785L16.7496 16.7855C16.75 16.7863 16.7504 16.7871 16.7508 16.7878C16.7407 16.8082 16.7317 16.8265 16.7235 16.843C16.6705 16.9507 16.6536 16.985 16.5875 17.0611C16.5337 17.1232 16.4793 17.1881 16.4289 17.2482C16.4125 17.2677 16.3966 17.2867 16.3813 17.3049C16.3173 17.381 16.2654 17.4412 16.2312 17.4749L16.7485 16.7833Z" fill="#DC697F" stroke="#DC697F" stroke-width="0.2"/>
</svg>
