<svg width="38" height="38" viewBox="0 0 38 38" fill="none" xmlns="http://www.w3.org/2000/svg">
<rect width="38" height="38" rx="8" fill="#F5F3EA"/>
<path d="M14.9091 8.9C11.5959 8.9 8.9 11.5959 8.9 14.9091V23.0909C8.9 26.4041 11.5959 29.1 14.9091 29.1H23.0909C26.4041 29.1 29.1 26.4041 29.1 23.0909V14.9091C29.1 11.5959 26.4041 8.9 23.0909 8.9H14.9091ZM14.9091 10.0091H23.0909C25.8023 10.0091 27.9909 12.1977 27.9909 14.9091V23.0909C27.9909 25.8023 25.8023 27.9909 23.0909 27.9909H14.9091C12.1977 27.9909 10.0091 25.8023 10.0091 23.0909V14.9091C10.0091 12.1977 12.1977 10.0091 14.9091 10.0091ZM24.4545 12.5364C24.1869 12.5364 23.9303 12.6427 23.741 12.8319C23.5518 13.0212 23.4455 13.2778 23.4455 13.5455C23.4455 13.8131 23.5518 14.0697 23.741 14.259C23.9303 14.4482 24.1869 14.5545 24.4545 14.5545C24.7222 14.5545 24.9788 14.4482 25.1681 14.259C25.3573 14.0697 25.4636 13.8131 25.4636 13.5455C25.4636 13.2778 25.3573 13.0212 25.1681 12.8319C24.9788 12.6427 24.7222 12.5364 24.4545 12.5364ZM19 13.9C16.1887 13.9 13.9 16.1887 13.9 19C13.9 21.8113 16.1887 24.1 19 24.1C21.8113 24.1 24.1 21.8113 24.1 19C24.1 16.1887 21.8113 13.9 19 13.9ZM19 15.0091C21.2095 15.0091 22.9909 16.7905 22.9909 19C22.9909 21.2095 21.2095 22.9909 19 22.9909C16.7905 22.9909 15.0091 21.2095 15.0091 19C15.0091 16.7905 16.7905 15.0091 19 15.0091Z" fill="#DC697F" stroke="#DC697F" stroke-width="0.2"/>
</svg>
