<svg width="30" height="30" viewBox="0 0 30 30" fill="none" xmlns="http://www.w3.org/2000/svg">
<path fill-rule="evenodd" clip-rule="evenodd" d="M25.3229 21.6753C25.2886 22.1537 25.1497 22.6186 24.9159 23.0373L19.0112 19.1993L20.1209 17.8976C20.174 17.8341 20.2487 17.7924 20.3306 17.7805C20.4125 17.7685 20.4959 17.7872 20.565 17.8329L24.7844 20.5742C24.9678 20.6893 25.1154 20.8535 25.2106 21.048C25.3057 21.2426 25.3446 21.4599 25.3229 21.6753ZM22.3539 24.8856C23.1713 24.6454 23.9137 24.2003 24.5106 23.5924L18.5635 19.7263L18.0447 20.3363C17.9013 20.5064 17.7063 20.6249 17.4893 20.6738C17.2723 20.7227 17.0452 20.6993 16.8428 20.6071C13.4612 19.0721 10.7515 16.3622 9.21669 12.9805C9.12427 12.7785 9.10047 12.5518 9.14893 12.3349C9.19739 12.1181 9.31544 11.9231 9.48508 11.7796L10.0951 11.2604L6.22993 5.31272C5.62329 5.9105 5.17913 6.65312 4.93943 7.47038C4.79736 7.87461 4.7299 8.30129 4.74033 8.72964C4.86916 17.3132 12.5111 24.9554 21.0959 25.084C21.5238 25.095 21.9502 25.0281 22.3542 24.8863L22.3539 24.8856ZM8.14945 4.50119C8.18556 4.49826 8.22265 4.49631 8.25998 4.49631C8.45759 4.49485 8.65227 4.54411 8.82541 4.63937C8.99855 4.73464 9.14435 4.87272 9.2489 5.04042L11.9907 9.25984C12.0367 9.32866 12.0556 9.41209 12.0437 9.49401C12.0318 9.57593 11.9899 9.65054 11.9263 9.70343L10.6238 10.8117L6.78697 4.90842C7.20568 4.67393 7.671 4.5348 8.14969 4.50094L8.14945 4.50119ZM25.1582 19.9991L20.9388 17.2576C20.7294 17.1219 20.4779 17.067 20.2311 17.1029C19.9842 17.1388 19.7588 17.2631 19.5968 17.4527L17.5204 19.8927C17.4733 19.9495 17.4087 19.9892 17.3367 20.0055C17.2647 20.0218 17.1894 20.0138 17.1224 19.9827C13.8944 18.5161 11.3076 15.9286 9.84181 12.7002C9.81079 12.6332 9.80285 12.5578 9.81922 12.4858C9.8356 12.4138 9.87538 12.3492 9.93233 12.3022L12.3703 10.2275C12.5599 10.0658 12.6844 9.84082 12.7206 9.5943C12.7569 9.34777 12.7025 9.09646 12.5675 8.88702L9.8257 4.66637C9.64244 4.3792 9.38362 4.14807 9.07764 3.99833C8.77165 3.84858 8.43033 3.78602 8.09113 3.81751C6.28605 3.96927 5.00775 5.12386 4.28821 7.25078C4.12253 7.72909 4.04329 8.23308 4.05422 8.73916C4.09366 10.9611 4.59 13.1511 5.51234 15.1728C6.42067 17.1849 7.68906 19.014 9.255 20.57C10.811 22.1357 12.64 23.4037 14.6519 24.3117C16.6737 25.2337 18.8635 25.73 21.0852 25.7701H21.1615C21.6424 25.7728 22.1202 25.6937 22.5745 25.5361C24.6992 24.8168 25.8548 23.537 26.0056 21.7329C26.0377 21.3939 25.9756 21.0526 25.8261 20.7467C25.6765 20.4407 25.4454 20.182 25.1582 19.9991Z" fill="#F5F3EA" stroke="#F5F3EA" stroke-width="0.2"/>
</svg>
